<svg width="16" height="16" fill="none" xmlns="http://www.w3.org/2000/svg"><path d="M16 8A8 8 0 1 1 0 8a8 8 0 0 1 16 0Z" fill="#2F354D"/><path d="M6.26 10.55A3.04 3.04 0 0 0 7.8 11c.33 0 .61-.08.84-.24.23-.17.34-.45.34-.82 0-.32-.07-.57-.2-.78-.15-.2-.33-.38-.54-.54a4.39 4.39 0 0 0-.7-.44 5.31 5.31 0 0 1-.7-.5 2.13 2.13 0 0 1-.73-1.69c0-.65.17-1.13.51-1.46.35-.33.84-.5 1.47-.5.4 0 .76.04 1.06.12.3.08.55.18.77.3l-.28.92a2.8 2.8 0 0 0-.66-.24A2.08 2.08 0 0 0 8.23 5c-.36 0-.62.08-.8.23-.15.15-.23.39-.23.71 0 .25.07.47.2.65.15.18.32.34.53.49l.7.44c.25.15.48.33.7.55.21.2.39.45.53.74.14.28.2.64.2 1.08 0 .28-.04.55-.13.8a1.8 1.8 0 0 1-1.1 1.11 2.5 2.5 0 0 1-.96.17c-.44 0-.81-.05-1.13-.14a2.7 2.7 0 0 1-.81-.33l.33-.96Z" fill="#fff"/><ellipse cx="3.17" cy="7.92" rx=".87" ry=".88" fill="#fff"/><ellipse cx="12.83" cy="7.92" rx=".87" ry=".88" fill="#fff"/></svg>
