<svg width="24" height="24" fill="none" xmlns="http://www.w3.org/2000/svg"><path d="M24 12a12 12 0 11-24 0 12 12 0 0124 0z" fill="#fff"/><path d="M6.17 12c0 .7-.57 1.27-1.28 1.27-.71 0-1.29-.57-1.29-1.27 0-.7.58-1.27 1.29-1.27.7 0 1.28.57 1.28 1.27zM19.11 13.27c.71 0 1.29-.57 1.29-1.27 0-.7-.58-1.27-1.29-1.27-.7 0-1.28.57-1.28 1.27 0 .7.57 1.27 1.28 1.27zM14.57 7.21a4.87 4.87 0 00-3.3-.5c-1.03.23-1.93.94-2.1 2.12-.13.98.17 1.75.68 2.36.48.56 1.14.98 1.7 1.33.6.37 1.1.67 1.48 1.03.34.33.52.67.52 1.13 0 .51-.15.78-.32.93-.18.16-.48.28-.9.31-.85.06-1.89-.28-2.46-.72l-.92 1.16a5.57 5.57 0 003.5 1.03 2.94 2.94 0 001.8-.7c.52-.48.8-1.17.8-2.01 0-.94-.42-1.64-.97-2.18-.52-.5-1.19-.9-1.73-1.23A5.64 5.64 0 0111 10.24a1.42 1.42 0 01-.34-1.2c.06-.44.37-.77.96-.9.6-.15 1.44-.05 2.25.37l.7-1.3z" fill="#181B2B"/><path fill-rule="evenodd" clip-rule="evenodd" d="M12 23.13A11.12 11.12 0 1012 .88a11.12 11.12 0 000 22.25zM24 12a12 12 0 11-24 0 12 12 0 0124 0z" fill="#D2D6E7"/></svg>
